<svg width="96" height="96" xmlns="http://www.w3.org/2000/svg" xmlns:xlink="http://www.w3.org/1999/xlink" xml:space="preserve" overflow="hidden"><g transform="translate(-857 -324)"><path d="M875.1 380.144C873.914 377.87 872.997 375.466 872.369 372.979 869.14 373.373 865.956 374.078 862.862 375.085 862.862 375.085 869.462 390.679 882.416 396.38 887.094 398.333 892.148 399.221 897.211 398.98 891.987 396.767 880.833 390.994 875.1 380.144Z" fill="#EBD984"/><path d="M937.426 372.97C936.799 375.46 935.881 377.868 934.693 380.144 928.965 390.992 917.813 396.765 912.585 398.978 917.67 399.228 922.747 398.339 927.446 396.378 940.4 390.679 947 375.085 947 375.085 943.885 374.071 940.678 373.362 937.426 372.97Z" fill="#EBD984"/><path d="M889.209 371.475C889.27 367.016 890.161 362.607 891.837 358.475 887.289 354.606 882.104 351.557 876.512 349.462 876.512 349.462 872 365.782 878.608 378.294 883.208 387.004 891.908 392.149 897.082 394.575 893.482 389.255 889.209 380.946 889.209 371.475Z" fill="#EBD984"/><path d="M933.284 349.459C927.622 351.581 922.377 354.682 917.79 358.622 919.43 362.712 920.301 367.069 920.36 371.475 920.36 381.04 916.002 389.419 912.38 394.732 917.502 392.374 926.489 387.192 931.189 378.294 937.8 365.782 933.284 349.459 933.284 349.459Z" fill="#EBD984"/><path d="M916.4 371.476C916.4 386.061 904.788 397.951 904.788 397.951 904.788 397.951 893.172 386.061 893.172 371.476 893.172 357.326 904.784 345 904.784 345 904.784 345 916.4 357.326 916.4 371.476Z" fill="#EBD984"/></g></svg>